<svg id="Layer_1" data-name="Layer 1" xmlns="http://www.w3.org/2000/svg" viewBox="0 0 185.91 70.384">
  <defs>
    <style>
      .cls-1 {
        fill: #fff;
      }

      .cls-2 {
        fill: #82bbca;
      }
    </style>
  </defs>
  <title>soloLogo2</title>
  <g id="_Group_" data-name="&lt;Group&gt;">
    <g id="_Group_2" data-name="&lt;Group&gt;">
      <path class="cls-1" d="M20.875,24.655H15.727l-1,3.364H10.5L16.143,10.71h2.152v.012l.012-.012h2.152l5.659,17.309H21.885Zm-4.22-3.091h3.293l-1.617-5.373h-.071Z" transform="translate(-10.436 -3.538)"/>
      <path class="cls-1" d="M31.372,21.385v6.634H27.354V10.71h6.027A7.487,7.487,0,0,1,38.148,12.1a4.587,4.587,0,0,1,1.759,3.8,3.786,3.786,0,0,1-.708,2.307,5.018,5.018,0,0,1-2.086,1.569,3.872,3.872,0,0,1,2.288,1.5,4.652,4.652,0,0,1,.7,2.621V25a6.9,6.9,0,0,0,.2,1.546,2.047,2.047,0,0,0,.7,1.236v.237H36.852a1.945,1.945,0,0,1-.618-1.3,11.5,11.5,0,0,1-.143-1.747V23.929a2.559,2.559,0,0,0-.654-1.89,2.6,2.6,0,0,0-1.914-.654Zm0-3.091H33.4a2.761,2.761,0,0,0,1.854-.553,1.98,1.98,0,0,0,.642-1.587,2.285,2.285,0,0,0-.66-1.706,2.544,2.544,0,0,0-1.86-.647H31.372Z" transform="translate(-10.436 -3.538)"/>
      <path class="cls-1" d="M51.938,24.655H46.79l-1,3.364H41.56L47.206,10.71h2.152v.012l.012-.012h2.152L57.18,28.019H52.948Zm-4.22-3.091H51.01l-1.617-5.373h-.071Z" transform="translate(-10.436 -3.538)"/>
      <path class="cls-1" d="M71.957,25.629A7.215,7.215,0,0,1,69.413,27.5a9.931,9.931,0,0,1-4.22.773,7.146,7.146,0,0,1-5.23-1.974,6.865,6.865,0,0,1-2.009-5.124V17.558a6.976,6.976,0,0,1,1.956-5.112,6.761,6.761,0,0,1,5.035-1.985,7.414,7.414,0,0,1,5.011,1.48,4.933,4.933,0,0,1,1.635,4.048l-.024.071H67.8a2.436,2.436,0,0,0-.677-1.891,2.95,2.95,0,0,0-2.045-.618,2.72,2.72,0,0,0-2.259,1.105,4.57,4.57,0,0,0-.856,2.877v3.638a4.625,4.625,0,0,0,.85,2.907,2.841,2.841,0,0,0,2.383,1.1A6.706,6.706,0,0,0,66.934,25a2.794,2.794,0,0,0,1-.476V21.433H64.872V18.77h7.085Z" transform="translate(-10.436 -3.538)"/>
      <path class="cls-1" d="M88.552,10.71V21.932a5.788,5.788,0,0,1-1.973,4.654,7.656,7.656,0,0,1-5.147,1.683,7.74,7.74,0,0,1-5.183-1.683,5.772,5.772,0,0,1-1.985-4.654V10.71h4.03V21.932a3.26,3.26,0,0,0,.832,2.426,3.142,3.142,0,0,0,2.306.82,3.077,3.077,0,0,0,2.276-.814,3.3,3.3,0,0,0,.814-2.432V10.71Z" transform="translate(-10.436 -3.538)"/>
      <path class="cls-1" d="M100.013,24.655H94.865l-1,3.364H89.635L95.281,10.71h2.152v.012l.012-.012H99.6l5.659,17.309h-4.232Zm-4.22-3.091h3.293l-1.617-5.373H97.4Z" transform="translate(-10.436 -3.538)"/>
      <path class="cls-1" d="M117.476,13.8H112.9V28.019h-4.018V13.8h-4.494V10.71h13.088Z" transform="translate(-10.436 -3.538)"/>
      <path class="cls-1" d="M133.156,20.922a7.231,7.231,0,0,1-2.027,5.271,7.071,7.071,0,0,1-5.3,2.075,7.057,7.057,0,0,1-7.382-7.347V17.807a7.216,7.216,0,0,1,2.039-5.267,7.82,7.82,0,0,1,10.622,0,7.206,7.206,0,0,1,2.044,5.267Zm-4.006-3.139a5,5,0,0,0-.874-3.043,3.183,3.183,0,0,0-4.957-.007,5.053,5.053,0,0,0-.862,3.05v3.139a5.046,5.046,0,0,0,.874,3.066,2.917,2.917,0,0,0,2.5,1.189,2.854,2.854,0,0,0,2.449-1.189,5.071,5.071,0,0,0,.868-3.066Z" transform="translate(-10.436 -3.538)"/>
    </g>
    <g id="_Group_3" data-name="&lt;Group&gt;">
      <path class="cls-1" d="M80.727,48.179a5.319,5.319,0,0,1-2.11,1.76,8.2,8.2,0,0,1-3.882.82A6.356,6.356,0,0,1,69.85,48.7a7.534,7.534,0,0,1-1.9-5.326V40.2a7.46,7.46,0,0,1,1.842-5.23,6.154,6.154,0,0,1,4.767-2.021,6.458,6.458,0,0,1,4.476,1.486,4.713,4.713,0,0,1,1.611,3.78l-.036.071H79.3a3.891,3.891,0,0,0-1.236-2.96,4.919,4.919,0,0,0-3.507-1.165A4.678,4.678,0,0,0,70.8,35.851a6.474,6.474,0,0,0-1.427,4.327v3.2a6.6,6.6,0,0,0,1.486,4.446,4.859,4.859,0,0,0,3.875,1.735,6.952,6.952,0,0,0,2.972-.547,3.675,3.675,0,0,0,1.6-1.271V43.305h-4.66V42.092h6.075Z" transform="translate(-10.436 -3.538)"/>
      <path class="cls-1" d="M94.243,45.683h-7.6L84.9,50.509H83.425L89.786,33.2h1.343l6.313,17.309H95.967ZM87.1,44.411H93.78L90.5,35.233h-.071Z" transform="translate(-10.436 -3.538)"/>
      <path class="cls-1" d="M108.438,48.441h.071l6.443-15.24h1.735V50.509h-1.426V35.97l-.071-.012-6.206,14.551h-1.022L101.614,35.6l-.071.012v14.9h-1.427V33.2h1.9Z" transform="translate(-10.436 -3.538)"/>
      <path class="cls-1" d="M130.3,42.128h-7.763v7.181h8.976v1.2h-10.4V33.2h10.343v1.212h-8.916v6.5H130.3Z" transform="translate(-10.436 -3.538)"/>
    </g>
    <g id="_Group_4" data-name="&lt;Group&gt;">
      <path id="_Path_" data-name="&lt;Path&gt;" class="cls-1" d="M188.621,28.21a12.783,12.783,0,0,0-5.156-1.075A10.734,10.734,0,1,1,194.044,16.4c0,.27-.009.536-.03.8a1.229,1.229,0,0,0-.012.151v.018a1.152,1.152,0,0,0,2.3.161l.009-.094a.148.148,0,0,0,0-.036q.036-.491.036-.991a12.89,12.89,0,1,0-12.881,12.872,10.735,10.735,0,0,1,0,21.47,10.541,10.541,0,0,1-7.628-3.263,9.908,9.908,0,0,1-.948,1.1c-.179.179-.364.348-.554.512A12.882,12.882,0,1,0,188.621,28.21Z" transform="translate(-10.436 -3.538)"/>
      <path id="_Compound_Path_" data-name="&lt;Compound Path&gt;" class="cls-1" d="M143.322,16.4a5.275,5.275,0,0,0-.379-1.978,5.092,5.092,0,0,0-.863-1.433,9.6,9.6,0,0,0-2.511,2.384,10.607,10.607,0,0,0-1.657,3.526,13.264,13.264,0,0,0-.412,2.569,16.565,16.565,0,0,0,.1,3.22,2.706,2.706,0,0,0,.354-.067,2.9,2.9,0,0,0,2.157-2.6,2.409,2.409,0,0,0,.012-.257,3.051,3.051,0,0,0-.045-.53A5.146,5.146,0,0,0,143.322,16.4Zm-2.446.2c-.222.385-.559.607-.751.5s-.168-.513.054-.9.559-.607.751-.5S141.1,16.217,140.875,16.6Z" transform="translate(-10.436 -3.538)"/>
      <path id="_Path_2" data-name="&lt;Path&gt;" class="cls-1" d="M157.463,43.105a6.757,6.757,0,0,1-.606.315A3.379,3.379,0,0,1,157.463,43.105Z" transform="translate(-10.436 -3.538)"/>
      <path id="_Path_3" data-name="&lt;Path&gt;" class="cls-2" d="M161.3,26.613a13.2,13.2,0,0,1,2.457-.509,9.954,9.954,0,0,1-3.463,13.945,7.761,7.761,0,0,0,.654-1.875,7.6,7.6,0,0,0,.17-1.506,12.741,12.741,0,0,0,.182-10.055Z" transform="translate(-10.436 -3.538)"/>
      <path id="_Compound_Path_2" data-name="&lt;Compound Path&gt;" class="cls-1" d="M176.218,32.169v0c-.088-.227-.185-.457-.288-.685l0-.006-.006-.009c-.2-.464-.412-.93-.645-1.394a36.264,36.264,0,0,0-6.84-9.379c-8.728-8.728-20-11.869-26.356-7.7a5.092,5.092,0,0,1,.863,1.433,5.275,5.275,0,0,1,.379,1.978,5.146,5.146,0,0,1-3.242,4.838,3.051,3.051,0,0,1,.045.53,2.409,2.409,0,0,1-.012.257,2.9,2.9,0,0,1-2.157,2.6,2.706,2.706,0,0,1-.354.067c.015.142.036.285.058.427a24.588,24.588,0,0,0,1.866,6.31q.5-.036,1-.036a13.226,13.226,0,0,1,7.934,2.623,6.783,6.783,0,0,1,7.528-4.284c.006,0,.015,0,.021.006a6.011,6.011,0,0,1,1.475.524,12.868,12.868,0,0,1-5.341,7.51c-.07.045-.139.091-.212.136a13.061,13.061,0,0,1-2.451,1.23,9.744,9.744,0,0,0,2.73,1.557,8.705,8.705,0,0,0,1.012.312v0a9.72,9.72,0,0,0,2.333.285,9.52,9.52,0,0,0,2.384-.3,12.938,12.938,0,0,0,3.175-4.326,12.741,12.741,0,0,0,.182-10.055,13.2,13.2,0,0,1,2.457-.509,9.954,9.954,0,0,1-3.463,13.945,7.3,7.3,0,0,1-2.817,3.051l-.009.006a6.771,6.771,0,0,1-.606.315l-.009,0a3.614,3.614,0,0,0-1.63,3.032,3.662,3.662,0,0,0,.145,1.021,13.147,13.147,0,0,0,2.614,2.245h0c.176.115.351.227.533.33h0a13.311,13.311,0,0,0,9.164,1.578h0a11.215,11.215,0,0,0,6.65-2.527c.191-.164.376-.333.554-.512a9.908,9.908,0,0,0,.948-1.1,10.968,10.968,0,0,0,1.939-4.777l0-.012v-.006A19.939,19.939,0,0,0,176.218,32.169Zm-25.5-16.5h0c-.029.033-.058.067-.089.1l-.27-.27L147.6,12.735a2.147,2.147,0,0,1,3.127,2.939Z" transform="translate(-10.436 -3.538)"/>
      <path id="_Path_4" data-name="&lt;Path&gt;" class="cls-2" d="M147.6,12.735a2.147,2.147,0,0,1,3.127,2.939c-.117-.057-.239-.117-.359-.171Z" transform="translate(-10.436 -3.538)"/>
      <path id="_Path_5" data-name="&lt;Path&gt;" class="cls-1" d="M150.363,15.5c.12.054.242.114.359.171-.029.033-.058.067-.089.1Z" transform="translate(-10.436 -3.538)"/>
      <ellipse id="_Path_6" data-name="&lt;Path&gt;" class="cls-2" cx="140.527" cy="16.401" rx="0.805" ry="0.403" transform="translate(45.623 126.362) rotate(-60)"/>
    </g>
  </g>
</svg>
